<mxfile host="Electron" modified="2024-03-12T17:55:48.094Z" agent="Mozilla/5.0 (Windows NT 10.0; Win64; x64) AppleWebKit/537.36 (KHTML, like Gecko) draw.io/24.0.4 Chrome/120.0.6099.109 Electron/28.1.0 Safari/537.36" etag="ZhaSEJZfJ0LIaCrZTanx" version="24.0.4" type="device">
  <diagram name="Страница — 1" id="0UvhEeaunKFuDfYy9Ub2">
    <mxGraphModel dx="3190" dy="1367" grid="1" gridSize="10" guides="1" tooltips="1" connect="1" arrows="1" fold="1" page="1" pageScale="1" pageWidth="827" pageHeight="1169" math="0" shadow="0">
      <root>
        <mxCell id="0" />
        <mxCell id="1" parent="0" />
        <mxCell id="iQpjgSxgv7tvpWf9ct1n-1" value="Пользователь" style="shape=umlActor;verticalLabelPosition=bottom;verticalAlign=top;html=1;" parent="1" vertex="1">
          <mxGeometry x="-505" y="20" width="30" height="60" as="geometry" />
        </mxCell>
        <mxCell id="iQpjgSxgv7tvpWf9ct1n-2" value="Устройство" style="shape=umlLifeline;perimeter=lifelinePerimeter;whiteSpace=wrap;html=1;container=1;dropTarget=0;collapsible=0;recursiveResize=0;outlineConnect=0;portConstraint=eastwest;newEdgeStyle={&quot;curved&quot;:0,&quot;rounded&quot;:0};" parent="1" vertex="1">
          <mxGeometry x="-320" y="30" width="100" height="1120" as="geometry" />
        </mxCell>
        <mxCell id="iQpjgSxgv7tvpWf9ct1n-5" value="" style="html=1;points=[[0,0,0,0,5],[0,1,0,0,-5],[1,0,0,0,5],[1,1,0,0,-5]];perimeter=orthogonalPerimeter;outlineConnect=0;targetShapes=umlLifeline;portConstraint=eastwest;newEdgeStyle={&quot;curved&quot;:0,&quot;rounded&quot;:0};" parent="iQpjgSxgv7tvpWf9ct1n-2" vertex="1">
          <mxGeometry x="45" y="80" width="10" height="1040" as="geometry" />
        </mxCell>
        <mxCell id="iQpjgSxgv7tvpWf9ct1n-14" value="Открыть окно регистрации" style="html=1;align=left;spacingLeft=2;endArrow=block;rounded=0;edgeStyle=orthogonalEdgeStyle;curved=0;rounded=0;" parent="iQpjgSxgv7tvpWf9ct1n-2" target="iQpjgSxgv7tvpWf9ct1n-5" edge="1">
          <mxGeometry relative="1" as="geometry">
            <mxPoint x="54.99999999999977" y="249.9999999999999" as="sourcePoint" />
            <Array as="points">
              <mxPoint x="90" y="250" />
              <mxPoint x="90" y="280" />
            </Array>
            <mxPoint x="60" y="280" as="targetPoint" />
          </mxGeometry>
        </mxCell>
        <mxCell id="iQpjgSxgv7tvpWf9ct1n-22" value="Подтвердить регистрацию" style="html=1;align=left;spacingLeft=2;endArrow=block;rounded=0;edgeStyle=orthogonalEdgeStyle;curved=0;rounded=0;" parent="iQpjgSxgv7tvpWf9ct1n-2" target="iQpjgSxgv7tvpWf9ct1n-5" edge="1">
          <mxGeometry relative="1" as="geometry">
            <mxPoint x="55" y="490.0022580645161" as="sourcePoint" />
            <Array as="points">
              <mxPoint x="90" y="490" />
              <mxPoint x="90" y="520" />
            </Array>
            <mxPoint x="60" y="520" as="targetPoint" />
          </mxGeometry>
        </mxCell>
        <mxCell id="iQpjgSxgv7tvpWf9ct1n-28" value="Открыть окно входа" style="html=1;align=left;spacingLeft=2;endArrow=block;rounded=0;edgeStyle=orthogonalEdgeStyle;curved=0;rounded=0;" parent="iQpjgSxgv7tvpWf9ct1n-2" target="iQpjgSxgv7tvpWf9ct1n-5" edge="1">
          <mxGeometry relative="1" as="geometry">
            <mxPoint x="55" y="680" as="sourcePoint" />
            <Array as="points">
              <mxPoint x="90" y="680" />
              <mxPoint x="90" y="710" />
            </Array>
            <mxPoint x="60" y="710" as="targetPoint" />
          </mxGeometry>
        </mxCell>
        <mxCell id="iQpjgSxgv7tvpWf9ct1n-38" value="Открыть страницу &amp;lt;&amp;lt;Обучение&amp;gt;&amp;gt;" style="html=1;align=left;spacingLeft=2;endArrow=block;rounded=0;edgeStyle=orthogonalEdgeStyle;curved=0;rounded=0;" parent="iQpjgSxgv7tvpWf9ct1n-2" target="iQpjgSxgv7tvpWf9ct1n-5" edge="1">
          <mxGeometry relative="1" as="geometry">
            <mxPoint x="55" y="990" as="sourcePoint" />
            <Array as="points">
              <mxPoint x="85" y="990" />
              <mxPoint x="85" y="1020" />
            </Array>
            <mxPoint x="60" y="1020" as="targetPoint" />
          </mxGeometry>
        </mxCell>
        <mxCell id="iQpjgSxgv7tvpWf9ct1n-3" value="Сервер" style="shape=umlLifeline;perimeter=lifelinePerimeter;whiteSpace=wrap;html=1;container=1;dropTarget=0;collapsible=0;recursiveResize=0;outlineConnect=0;portConstraint=eastwest;newEdgeStyle={&quot;curved&quot;:0,&quot;rounded&quot;:0};" parent="1" vertex="1">
          <mxGeometry x="-100" y="30" width="100" height="1120" as="geometry" />
        </mxCell>
        <mxCell id="iQpjgSxgv7tvpWf9ct1n-6" value="" style="html=1;points=[[0,0,0,0,5],[0,1,0,0,-5],[1,0,0,0,5],[1,1,0,0,-5]];perimeter=orthogonalPerimeter;outlineConnect=0;targetShapes=umlLifeline;portConstraint=eastwest;newEdgeStyle={&quot;curved&quot;:0,&quot;rounded&quot;:0};" parent="iQpjgSxgv7tvpWf9ct1n-3" vertex="1">
          <mxGeometry x="45" y="380" width="10" height="120" as="geometry" />
        </mxCell>
        <mxCell id="iQpjgSxgv7tvpWf9ct1n-19" value="Проверить введенные данные" style="html=1;align=left;spacingLeft=2;endArrow=block;rounded=0;edgeStyle=orthogonalEdgeStyle;curved=0;rounded=0;" parent="iQpjgSxgv7tvpWf9ct1n-3" target="iQpjgSxgv7tvpWf9ct1n-6" edge="1">
          <mxGeometry relative="1" as="geometry">
            <mxPoint x="55" y="410" as="sourcePoint" />
            <Array as="points">
              <mxPoint x="90" y="410" />
              <mxPoint x="90" y="440" />
            </Array>
            <mxPoint x="60" y="440" as="targetPoint" />
          </mxGeometry>
        </mxCell>
        <mxCell id="u1IIu6U_tCMaD9LKFSS--1" value="" style="html=1;points=[[0,0,0,0,5],[0,1,0,0,-5],[1,0,0,0,5],[1,1,0,0,-5]];perimeter=orthogonalPerimeter;outlineConnect=0;targetShapes=umlLifeline;portConstraint=eastwest;newEdgeStyle={&quot;curved&quot;:0,&quot;rounded&quot;:0};" parent="iQpjgSxgv7tvpWf9ct1n-3" vertex="1">
          <mxGeometry x="45" y="820" width="10" height="120" as="geometry" />
        </mxCell>
        <mxCell id="iQpjgSxgv7tvpWf9ct1n-4" value="" style="html=1;points=[[0,0,0,0,5],[0,1,0,0,-5],[1,0,0,0,5],[1,1,0,0,-5]];perimeter=orthogonalPerimeter;outlineConnect=0;targetShapes=umlLifeline;portConstraint=eastwest;newEdgeStyle={&quot;curved&quot;:0,&quot;rounded&quot;:0};" parent="1" vertex="1">
          <mxGeometry x="-495" y="110" width="10" height="1040" as="geometry" />
        </mxCell>
        <mxCell id="iQpjgSxgv7tvpWf9ct1n-7" value="Открыть приложение" style="html=1;verticalAlign=bottom;endArrow=block;curved=0;rounded=0;" parent="1" target="iQpjgSxgv7tvpWf9ct1n-5" edge="1">
          <mxGeometry width="80" relative="1" as="geometry">
            <mxPoint x="-485" y="150" as="sourcePoint" />
            <mxPoint x="-290" y="150" as="targetPoint" />
          </mxGeometry>
        </mxCell>
        <mxCell id="iQpjgSxgv7tvpWf9ct1n-8" value="Отобразить страницу &amp;lt;&amp;lt;Обучение&amp;gt;&amp;gt;" style="html=1;verticalAlign=bottom;endArrow=block;curved=0;rounded=0;" parent="1" source="iQpjgSxgv7tvpWf9ct1n-5" target="iQpjgSxgv7tvpWf9ct1n-4" edge="1">
          <mxGeometry width="80" relative="1" as="geometry">
            <mxPoint x="-420" y="360" as="sourcePoint" />
            <mxPoint x="-340" y="360" as="targetPoint" />
            <Array as="points">
              <mxPoint x="-380" y="190" />
            </Array>
          </mxGeometry>
        </mxCell>
        <mxCell id="iQpjgSxgv7tvpWf9ct1n-9" value="" style="line;strokeWidth=1;fillColor=none;align=left;verticalAlign=middle;spacingTop=-1;spacingLeft=3;spacingRight=3;rotatable=0;labelPosition=right;points=[];portConstraint=eastwest;strokeColor=inherit;" parent="1" vertex="1">
          <mxGeometry x="-740" y="224" width="910" height="10" as="geometry" />
        </mxCell>
        <mxCell id="iQpjgSxgv7tvpWf9ct1n-10" value="[Регистрация]" style="text;html=1;align=center;verticalAlign=middle;resizable=0;points=[];autosize=1;strokeColor=none;fillColor=none;fontStyle=1" parent="1" vertex="1">
          <mxGeometry x="-590" y="240" width="100" height="30" as="geometry" />
        </mxCell>
        <mxCell id="iQpjgSxgv7tvpWf9ct1n-11" value="Нажать кнопку регистрации" style="html=1;verticalAlign=bottom;endArrow=block;curved=0;rounded=0;" parent="1" edge="1">
          <mxGeometry width="80" relative="1" as="geometry">
            <mxPoint x="-485" y="270" as="sourcePoint" />
            <mxPoint x="-275" y="270" as="targetPoint" />
            <Array as="points">
              <mxPoint x="-400" y="270" />
            </Array>
          </mxGeometry>
        </mxCell>
        <mxCell id="iQpjgSxgv7tvpWf9ct1n-12" value="Отобразить окно регистрации" style="html=1;verticalAlign=bottom;endArrow=block;curved=0;rounded=0;" parent="1" edge="1">
          <mxGeometry width="80" relative="1" as="geometry">
            <mxPoint x="-275" y="350" as="sourcePoint" />
            <mxPoint x="-485" y="350" as="targetPoint" />
            <Array as="points" />
          </mxGeometry>
        </mxCell>
        <mxCell id="iQpjgSxgv7tvpWf9ct1n-16" value="Ввести персональные данные" style="html=1;verticalAlign=bottom;endArrow=block;curved=0;rounded=0;" parent="1" edge="1">
          <mxGeometry width="80" relative="1" as="geometry">
            <mxPoint x="-485" y="390" as="sourcePoint" />
            <mxPoint x="-275.0000000000002" y="390" as="targetPoint" />
            <Array as="points">
              <mxPoint x="-385" y="390" />
            </Array>
          </mxGeometry>
        </mxCell>
        <mxCell id="iQpjgSxgv7tvpWf9ct1n-17" value="Передать данные" style="html=1;verticalAlign=bottom;endArrow=block;curved=0;rounded=0;" parent="1" edge="1">
          <mxGeometry width="80" relative="1" as="geometry">
            <mxPoint x="-265" y="429.66" as="sourcePoint" />
            <mxPoint x="-55" y="429.66" as="targetPoint" />
            <Array as="points">
              <mxPoint x="-150" y="429.66" />
            </Array>
          </mxGeometry>
        </mxCell>
        <mxCell id="iQpjgSxgv7tvpWf9ct1n-20" value="Вернуть результат проверки данных" style="html=1;verticalAlign=bottom;endArrow=block;curved=0;rounded=0;" parent="1" edge="1">
          <mxGeometry width="80" relative="1" as="geometry">
            <mxPoint x="-55" y="510" as="sourcePoint" />
            <mxPoint x="-265" y="510" as="targetPoint" />
            <Array as="points">
              <mxPoint x="-140" y="510" />
            </Array>
            <mxPoint as="offset" />
          </mxGeometry>
        </mxCell>
        <mxCell id="iQpjgSxgv7tvpWf9ct1n-23" value="Отобразить страницу &amp;lt;&amp;lt;Обучение&amp;gt;&amp;gt;" style="html=1;verticalAlign=bottom;endArrow=block;curved=0;rounded=0;" parent="1" edge="1">
          <mxGeometry width="80" relative="1" as="geometry">
            <mxPoint x="-275" y="589.76" as="sourcePoint" />
            <mxPoint x="-485" y="589.76" as="targetPoint" />
            <Array as="points">
              <mxPoint x="-380" y="589.76" />
            </Array>
          </mxGeometry>
        </mxCell>
        <mxCell id="iQpjgSxgv7tvpWf9ct1n-24" value="" style="line;strokeWidth=1;fillColor=none;align=left;verticalAlign=middle;spacingTop=-1;spacingLeft=3;spacingRight=3;rotatable=0;labelPosition=right;points=[];portConstraint=eastwest;strokeColor=inherit;dashed=1;" parent="1" vertex="1">
          <mxGeometry x="-660" y="650" width="810" height="10" as="geometry" />
        </mxCell>
        <mxCell id="iQpjgSxgv7tvpWf9ct1n-25" value="[Авторизация]" style="text;html=1;align=center;verticalAlign=middle;resizable=0;points=[];autosize=1;strokeColor=none;fillColor=none;fontStyle=1" parent="1" vertex="1">
          <mxGeometry x="-595" y="660" width="100" height="30" as="geometry" />
        </mxCell>
        <mxCell id="iQpjgSxgv7tvpWf9ct1n-26" value="Нажать кнопку авторизации" style="html=1;verticalAlign=bottom;endArrow=block;curved=0;rounded=0;" parent="1" edge="1">
          <mxGeometry width="80" relative="1" as="geometry">
            <mxPoint x="-485" y="700" as="sourcePoint" />
            <mxPoint x="-275" y="700" as="targetPoint" />
            <Array as="points">
              <mxPoint x="-380" y="700" />
            </Array>
          </mxGeometry>
        </mxCell>
        <mxCell id="iQpjgSxgv7tvpWf9ct1n-29" value="Отобразить окно входа" style="html=1;verticalAlign=bottom;endArrow=block;curved=0;rounded=0;" parent="1" edge="1">
          <mxGeometry width="80" relative="1" as="geometry">
            <mxPoint x="-275" y="790" as="sourcePoint" />
            <mxPoint x="-485" y="790" as="targetPoint" />
            <Array as="points">
              <mxPoint x="-380" y="790" />
            </Array>
          </mxGeometry>
        </mxCell>
        <mxCell id="iQpjgSxgv7tvpWf9ct1n-31" value="Ввести персональные данные" style="html=1;verticalAlign=bottom;endArrow=block;curved=0;rounded=0;exitX=1.5;exitY=0.784;exitDx=0;exitDy=0;exitPerimeter=0;" parent="1" target="iQpjgSxgv7tvpWf9ct1n-5" edge="1">
          <mxGeometry width="80" relative="1" as="geometry">
            <mxPoint x="-485" y="830.48" as="sourcePoint" />
            <mxPoint x="-280" y="830" as="targetPoint" />
            <Array as="points">
              <mxPoint x="-405" y="830" />
            </Array>
          </mxGeometry>
        </mxCell>
        <mxCell id="iQpjgSxgv7tvpWf9ct1n-33" value="Передать данные" style="html=1;verticalAlign=bottom;endArrow=block;curved=0;rounded=0;" parent="1" source="iQpjgSxgv7tvpWf9ct1n-5" target="u1IIu6U_tCMaD9LKFSS--1" edge="1">
          <mxGeometry width="80" relative="1" as="geometry">
            <mxPoint x="-290" y="920" as="sourcePoint" />
            <mxPoint x="-80" y="870" as="targetPoint" />
            <Array as="points">
              <mxPoint x="-190" y="870" />
            </Array>
          </mxGeometry>
        </mxCell>
        <mxCell id="iQpjgSxgv7tvpWf9ct1n-35" value="Проверить введенные данные" style="html=1;align=left;spacingLeft=2;endArrow=block;rounded=0;edgeStyle=orthogonalEdgeStyle;curved=0;rounded=0;" parent="1" target="u1IIu6U_tCMaD9LKFSS--1" edge="1">
          <mxGeometry relative="1" as="geometry">
            <mxPoint x="-45" y="880" as="sourcePoint" />
            <Array as="points">
              <mxPoint x="-15" y="880" />
              <mxPoint x="-15" y="910" />
            </Array>
            <mxPoint x="-40" y="910" as="targetPoint" />
          </mxGeometry>
        </mxCell>
        <mxCell id="iQpjgSxgv7tvpWf9ct1n-36" value="Вернуть результат проверки данных" style="html=1;verticalAlign=bottom;endArrow=block;curved=0;rounded=0;" parent="1" source="u1IIu6U_tCMaD9LKFSS--1" target="iQpjgSxgv7tvpWf9ct1n-5" edge="1">
          <mxGeometry width="80" relative="1" as="geometry">
            <mxPoint x="-70" y="960" as="sourcePoint" />
            <mxPoint x="-260" y="1020" as="targetPoint" />
            <Array as="points">
              <mxPoint x="-130" y="960" />
            </Array>
          </mxGeometry>
        </mxCell>
        <mxCell id="iQpjgSxgv7tvpWf9ct1n-39" value="Отобразить страницу &amp;lt;&amp;lt;Обучение&amp;gt;&amp;gt;" style="html=1;verticalAlign=bottom;endArrow=block;curved=0;rounded=0;" parent="1" source="iQpjgSxgv7tvpWf9ct1n-5" target="iQpjgSxgv7tvpWf9ct1n-4" edge="1">
          <mxGeometry width="80" relative="1" as="geometry">
            <mxPoint x="-305" y="1120" as="sourcePoint" />
            <mxPoint x="-500" y="1120" as="targetPoint" />
            <Array as="points">
              <mxPoint x="-380" y="1100" />
            </Array>
          </mxGeometry>
        </mxCell>
        <mxCell id="YqX1MCXp1g7Alytnqwt2-1" value="Пользователь" style="shape=umlActor;verticalLabelPosition=bottom;verticalAlign=top;html=1;" parent="1" vertex="1">
          <mxGeometry x="495" y="20" width="30" height="60" as="geometry" />
        </mxCell>
        <mxCell id="YqX1MCXp1g7Alytnqwt2-2" value="" style="html=1;points=[[0,0,0,0,5],[0,1,0,0,-5],[1,0,0,0,5],[1,1,0,0,-5]];perimeter=orthogonalPerimeter;outlineConnect=0;targetShapes=umlLifeline;portConstraint=eastwest;newEdgeStyle={&quot;curved&quot;:0,&quot;rounded&quot;:0};" parent="1" vertex="1">
          <mxGeometry x="505" y="110" width="10" height="1040" as="geometry" />
        </mxCell>
        <mxCell id="YqX1MCXp1g7Alytnqwt2-3" value="Устройство" style="shape=umlLifeline;perimeter=lifelinePerimeter;whiteSpace=wrap;html=1;container=1;dropTarget=0;collapsible=0;recursiveResize=0;outlineConnect=0;portConstraint=eastwest;newEdgeStyle={&quot;curved&quot;:0,&quot;rounded&quot;:0};" parent="1" vertex="1">
          <mxGeometry x="680" y="30" width="100" height="1120" as="geometry" />
        </mxCell>
        <mxCell id="YqX1MCXp1g7Alytnqwt2-4" value="" style="html=1;points=[[0,0,0,0,5],[0,1,0,0,-5],[1,0,0,0,5],[1,1,0,0,-5]];perimeter=orthogonalPerimeter;outlineConnect=0;targetShapes=umlLifeline;portConstraint=eastwest;newEdgeStyle={&quot;curved&quot;:0,&quot;rounded&quot;:0};" parent="YqX1MCXp1g7Alytnqwt2-3" vertex="1">
          <mxGeometry x="45" y="80" width="10" height="1040" as="geometry" />
        </mxCell>
        <mxCell id="YqX1MCXp1g7Alytnqwt2-13" value="Сервер" style="shape=umlLifeline;perimeter=lifelinePerimeter;whiteSpace=wrap;html=1;container=1;dropTarget=0;collapsible=0;recursiveResize=0;outlineConnect=0;portConstraint=eastwest;newEdgeStyle={&quot;curved&quot;:0,&quot;rounded&quot;:0};" parent="1" vertex="1">
          <mxGeometry x="900" y="30" width="100" height="1120" as="geometry" />
        </mxCell>
        <mxCell id="YqX1MCXp1g7Alytnqwt2-14" value="" style="html=1;points=[[0,0,0,0,5],[0,1,0,0,-5],[1,0,0,0,5],[1,1,0,0,-5]];perimeter=orthogonalPerimeter;outlineConnect=0;targetShapes=umlLifeline;portConstraint=eastwest;newEdgeStyle={&quot;curved&quot;:0,&quot;rounded&quot;:0};" parent="YqX1MCXp1g7Alytnqwt2-13" vertex="1">
          <mxGeometry x="45" y="270" width="10" height="70" as="geometry" />
        </mxCell>
        <mxCell id="u1IIu6U_tCMaD9LKFSS--18" value="" style="html=1;points=[[0,0,0,0,5],[0,1,0,0,-5],[1,0,0,0,5],[1,1,0,0,-5]];perimeter=orthogonalPerimeter;outlineConnect=0;targetShapes=umlLifeline;portConstraint=eastwest;newEdgeStyle={&quot;curved&quot;:0,&quot;rounded&quot;:0};" parent="YqX1MCXp1g7Alytnqwt2-13" vertex="1">
          <mxGeometry x="45" y="470" width="10" height="70" as="geometry" />
        </mxCell>
        <mxCell id="4YKfd2uiVcV6lQS0S9Gb-7" value="" style="html=1;points=[[0,0,0,0,5],[0,1,0,0,-5],[1,0,0,0,5],[1,1,0,0,-5]];perimeter=orthogonalPerimeter;outlineConnect=0;targetShapes=umlLifeline;portConstraint=eastwest;newEdgeStyle={&quot;curved&quot;:0,&quot;rounded&quot;:0};" parent="YqX1MCXp1g7Alytnqwt2-13" vertex="1">
          <mxGeometry x="45" y="950" width="10" height="70" as="geometry" />
        </mxCell>
        <mxCell id="YqX1MCXp1g7Alytnqwt2-18" value="" style="line;strokeWidth=1;fillColor=none;align=left;verticalAlign=middle;spacingTop=-1;spacingLeft=3;spacingRight=3;rotatable=0;labelPosition=right;points=[];portConstraint=eastwest;strokeColor=inherit;" parent="1" vertex="1">
          <mxGeometry x="365" y="224" width="870" height="10" as="geometry" />
        </mxCell>
        <mxCell id="YqX1MCXp1g7Alytnqwt2-19" value="Открыть приложение" style="html=1;verticalAlign=bottom;endArrow=block;curved=0;rounded=0;" parent="1" edge="1">
          <mxGeometry width="80" relative="1" as="geometry">
            <mxPoint x="515" y="150" as="sourcePoint" />
            <mxPoint x="725" y="150" as="targetPoint" />
          </mxGeometry>
        </mxCell>
        <mxCell id="YqX1MCXp1g7Alytnqwt2-20" value="Отобразить страницу &amp;lt;&amp;lt;Обучение&amp;gt;&amp;gt;" style="html=1;verticalAlign=bottom;endArrow=block;curved=0;rounded=0;" parent="1" edge="1">
          <mxGeometry width="80" relative="1" as="geometry">
            <mxPoint x="725" y="190" as="sourcePoint" />
            <mxPoint x="515" y="190" as="targetPoint" />
            <Array as="points">
              <mxPoint x="620" y="190" />
            </Array>
          </mxGeometry>
        </mxCell>
        <mxCell id="YqX1MCXp1g7Alytnqwt2-21" value="Просмотр списка&amp;nbsp;&lt;div&gt;курсов&lt;/div&gt;" style="text;html=1;align=center;verticalAlign=middle;resizable=0;points=[];autosize=1;strokeColor=none;fillColor=none;fontStyle=1" parent="1" vertex="1">
          <mxGeometry x="385" y="240" width="120" height="40" as="geometry" />
        </mxCell>
        <mxCell id="YqX1MCXp1g7Alytnqwt2-22" value="Перейти к выбранному списку" style="html=1;verticalAlign=bottom;endArrow=block;curved=0;rounded=0;" parent="1" edge="1">
          <mxGeometry width="80" relative="1" as="geometry">
            <mxPoint x="515" y="270" as="sourcePoint" />
            <mxPoint x="725" y="270" as="targetPoint" />
          </mxGeometry>
        </mxCell>
        <mxCell id="YqX1MCXp1g7Alytnqwt2-23" value="Запросить данные о списке" style="html=1;verticalAlign=bottom;endArrow=block;curved=0;rounded=0;" parent="1" edge="1">
          <mxGeometry width="80" relative="1" as="geometry">
            <mxPoint x="735" y="310" as="sourcePoint" />
            <mxPoint x="945" y="310" as="targetPoint" />
          </mxGeometry>
        </mxCell>
        <mxCell id="YqX1MCXp1g7Alytnqwt2-24" value="Вернуть данные о списке" style="html=1;verticalAlign=bottom;endArrow=block;curved=0;rounded=0;" parent="1" source="YqX1MCXp1g7Alytnqwt2-14" target="YqX1MCXp1g7Alytnqwt2-4" edge="1">
          <mxGeometry width="80" relative="1" as="geometry">
            <mxPoint x="950" y="360.0000000000001" as="sourcePoint" />
            <mxPoint x="740" y="360.0000000000001" as="targetPoint" />
            <Array as="points">
              <mxPoint x="830" y="350" />
            </Array>
          </mxGeometry>
        </mxCell>
        <mxCell id="YqX1MCXp1g7Alytnqwt2-25" value="Отобразить список" style="html=1;verticalAlign=bottom;endArrow=block;curved=0;rounded=0;" parent="1" edge="1">
          <mxGeometry width="80" relative="1" as="geometry">
            <mxPoint x="725" y="390" as="sourcePoint" />
            <mxPoint x="515" y="390" as="targetPoint" />
            <Array as="points">
              <mxPoint x="620" y="390" />
            </Array>
          </mxGeometry>
        </mxCell>
        <mxCell id="YqX1MCXp1g7Alytnqwt2-26" value="" style="line;strokeWidth=1;fillColor=none;align=left;verticalAlign=middle;spacingTop=-1;spacingLeft=3;spacingRight=3;rotatable=0;labelPosition=right;points=[];portConstraint=eastwest;strokeColor=inherit;" parent="1" vertex="1">
          <mxGeometry x="370" y="425" width="870" height="10" as="geometry" />
        </mxCell>
        <mxCell id="u1IIu6U_tCMaD9LKFSS--15" value="Взаимодействие&lt;div&gt;с курсом&lt;/div&gt;" style="text;html=1;align=center;verticalAlign=middle;resizable=0;points=[];autosize=1;strokeColor=none;fillColor=none;fontStyle=1" parent="1" vertex="1">
          <mxGeometry x="385" y="440" width="120" height="40" as="geometry" />
        </mxCell>
        <mxCell id="u1IIu6U_tCMaD9LKFSS--16" value="Перейти к выбранному курсу" style="html=1;verticalAlign=bottom;endArrow=block;curved=0;rounded=0;" parent="1" edge="1">
          <mxGeometry width="80" relative="1" as="geometry">
            <mxPoint x="515" y="469.55" as="sourcePoint" />
            <mxPoint x="725" y="469.55" as="targetPoint" />
          </mxGeometry>
        </mxCell>
        <mxCell id="u1IIu6U_tCMaD9LKFSS--17" value="Запросить данные о курсе" style="html=1;verticalAlign=bottom;endArrow=block;curved=0;rounded=0;" parent="1" edge="1">
          <mxGeometry width="80" relative="1" as="geometry">
            <mxPoint x="735" y="510" as="sourcePoint" />
            <mxPoint x="945" y="510" as="targetPoint" />
          </mxGeometry>
        </mxCell>
        <mxCell id="u1IIu6U_tCMaD9LKFSS--19" value="Вернуть данные о курсе" style="html=1;verticalAlign=bottom;endArrow=block;curved=0;rounded=0;" parent="1" edge="1">
          <mxGeometry width="80" relative="1" as="geometry">
            <mxPoint x="945" y="550" as="sourcePoint" />
            <mxPoint x="735" y="550" as="targetPoint" />
            <Array as="points">
              <mxPoint x="835" y="550" />
            </Array>
          </mxGeometry>
        </mxCell>
        <mxCell id="u1IIu6U_tCMaD9LKFSS--20" value="Отобразить страницу курса" style="html=1;verticalAlign=bottom;endArrow=block;curved=0;rounded=0;" parent="1" edge="1">
          <mxGeometry width="80" relative="1" as="geometry">
            <mxPoint x="725" y="589.69" as="sourcePoint" />
            <mxPoint x="515" y="589.69" as="targetPoint" />
            <Array as="points">
              <mxPoint x="620" y="589.69" />
            </Array>
          </mxGeometry>
        </mxCell>
        <mxCell id="u1IIu6U_tCMaD9LKFSS--23" value="Оценить" style="html=1;verticalAlign=bottom;endArrow=block;curved=0;rounded=0;" parent="1" edge="1">
          <mxGeometry width="80" relative="1" as="geometry">
            <mxPoint x="515" y="669.9999999999999" as="sourcePoint" />
            <mxPoint x="725" y="669.9999999999999" as="targetPoint" />
          </mxGeometry>
        </mxCell>
        <mxCell id="u1IIu6U_tCMaD9LKFSS--24" value="opt" style="shape=umlFrame;whiteSpace=wrap;html=1;pointerEvents=0;" parent="1" vertex="1">
          <mxGeometry x="440" y="610" width="630" height="160" as="geometry" />
        </mxCell>
        <mxCell id="u1IIu6U_tCMaD9LKFSS--25" value="[Если подписан на курс]" style="text;html=1;align=center;verticalAlign=middle;resizable=0;points=[];autosize=1;strokeColor=none;fillColor=none;" parent="1" vertex="1">
          <mxGeometry x="505" y="615" width="160" height="30" as="geometry" />
        </mxCell>
        <mxCell id="u1IIu6U_tCMaD9LKFSS--26" value="" style="html=1;points=[[0,0,0,0,5],[0,1,0,0,-5],[1,0,0,0,5],[1,1,0,0,-5]];perimeter=orthogonalPerimeter;outlineConnect=0;targetShapes=umlLifeline;portConstraint=eastwest;newEdgeStyle={&quot;curved&quot;:0,&quot;rounded&quot;:0};" parent="1" vertex="1">
          <mxGeometry x="945" y="680" width="10" height="70" as="geometry" />
        </mxCell>
        <mxCell id="u1IIu6U_tCMaD9LKFSS--27" value="Запрос об оценивании" style="html=1;verticalAlign=bottom;endArrow=block;curved=0;rounded=0;" parent="1" edge="1">
          <mxGeometry width="80" relative="1" as="geometry">
            <mxPoint x="735" y="690" as="sourcePoint" />
            <mxPoint x="945" y="690" as="targetPoint" />
          </mxGeometry>
        </mxCell>
        <mxCell id="u1IIu6U_tCMaD9LKFSS--28" value="Сообщить об успехе" style="html=1;verticalAlign=bottom;endArrow=block;curved=0;rounded=0;" parent="1" edge="1">
          <mxGeometry width="80" relative="1" as="geometry">
            <mxPoint x="945" y="730" as="sourcePoint" />
            <mxPoint x="735" y="730" as="targetPoint" />
            <Array as="points">
              <mxPoint x="835" y="730" />
            </Array>
          </mxGeometry>
        </mxCell>
        <mxCell id="u1IIu6U_tCMaD9LKFSS--29" value="Отобразить оценку" style="html=1;verticalAlign=bottom;endArrow=block;curved=0;rounded=0;" parent="1" edge="1">
          <mxGeometry width="80" relative="1" as="geometry">
            <mxPoint x="725" y="750" as="sourcePoint" />
            <mxPoint x="515" y="750" as="targetPoint" />
            <Array as="points">
              <mxPoint x="620" y="750" />
            </Array>
          </mxGeometry>
        </mxCell>
        <mxCell id="u1IIu6U_tCMaD9LKFSS--31" value="" style="line;strokeWidth=1;fillColor=none;align=left;verticalAlign=middle;spacingTop=-1;spacingLeft=3;spacingRight=3;rotatable=0;labelPosition=right;points=[];portConstraint=eastwest;strokeColor=inherit;" parent="1" vertex="1">
          <mxGeometry x="385" y="825" width="870" height="10" as="geometry" />
        </mxCell>
        <mxCell id="4YKfd2uiVcV6lQS0S9Gb-1" value="Взаимодействие&lt;div&gt;с редактором&lt;/div&gt;" style="text;html=1;align=center;verticalAlign=middle;resizable=0;points=[];autosize=1;strokeColor=none;fillColor=none;fontStyle=1" parent="1" vertex="1">
          <mxGeometry x="375" y="840" width="120" height="40" as="geometry" />
        </mxCell>
        <mxCell id="4YKfd2uiVcV6lQS0S9Gb-2" value="Перейти в редактор" style="html=1;verticalAlign=bottom;endArrow=block;curved=0;rounded=0;" parent="1" edge="1">
          <mxGeometry width="80" relative="1" as="geometry">
            <mxPoint x="515" y="870" as="sourcePoint" />
            <mxPoint x="725" y="870" as="targetPoint" />
          </mxGeometry>
        </mxCell>
        <mxCell id="4YKfd2uiVcV6lQS0S9Gb-3" value="Отобразить редактор" style="html=1;verticalAlign=bottom;endArrow=block;curved=0;rounded=0;" parent="1" edge="1">
          <mxGeometry width="80" relative="1" as="geometry">
            <mxPoint x="725" y="910" as="sourcePoint" />
            <mxPoint x="515" y="910" as="targetPoint" />
            <Array as="points">
              <mxPoint x="620" y="910" />
            </Array>
          </mxGeometry>
        </mxCell>
        <mxCell id="4YKfd2uiVcV6lQS0S9Gb-4" value="Внести изменения" style="html=1;verticalAlign=bottom;endArrow=block;curved=0;rounded=0;" parent="1" edge="1">
          <mxGeometry width="80" relative="1" as="geometry">
            <mxPoint x="515" y="950" as="sourcePoint" />
            <mxPoint x="725" y="950" as="targetPoint" />
          </mxGeometry>
        </mxCell>
        <mxCell id="4YKfd2uiVcV6lQS0S9Gb-6" value="Внесение изменений" style="html=1;verticalAlign=bottom;endArrow=block;curved=0;rounded=0;" parent="1" edge="1">
          <mxGeometry width="80" relative="1" as="geometry">
            <mxPoint x="735" y="990" as="sourcePoint" />
            <mxPoint x="945" y="990" as="targetPoint" />
          </mxGeometry>
        </mxCell>
        <mxCell id="4YKfd2uiVcV6lQS0S9Gb-8" value="Изменения внесены" style="html=1;verticalAlign=bottom;endArrow=block;curved=0;rounded=0;" parent="1" edge="1">
          <mxGeometry width="80" relative="1" as="geometry">
            <mxPoint x="945" y="1040" as="sourcePoint" />
            <mxPoint x="735" y="1040" as="targetPoint" />
            <Array as="points">
              <mxPoint x="835" y="1040" />
            </Array>
          </mxGeometry>
        </mxCell>
        <mxCell id="4YKfd2uiVcV6lQS0S9Gb-9" value="Отобразить итоговое окно" style="html=1;verticalAlign=bottom;endArrow=block;curved=0;rounded=0;" parent="1" edge="1">
          <mxGeometry width="80" relative="1" as="geometry">
            <mxPoint x="725" y="1070" as="sourcePoint" />
            <mxPoint x="515" y="1070" as="targetPoint" />
            <Array as="points">
              <mxPoint x="620" y="1070" />
            </Array>
          </mxGeometry>
        </mxCell>
        <mxCell id="4YKfd2uiVcV6lQS0S9Gb-18" value="Пользователь" style="shape=umlActor;verticalLabelPosition=bottom;verticalAlign=top;html=1;" parent="1" vertex="1">
          <mxGeometry x="1460" y="20" width="30" height="60" as="geometry" />
        </mxCell>
        <mxCell id="4YKfd2uiVcV6lQS0S9Gb-19" value="" style="html=1;points=[[0,0,0,0,5],[0,1,0,0,-5],[1,0,0,0,5],[1,1,0,0,-5]];perimeter=orthogonalPerimeter;outlineConnect=0;targetShapes=umlLifeline;portConstraint=eastwest;newEdgeStyle={&quot;curved&quot;:0,&quot;rounded&quot;:0};" parent="1" vertex="1">
          <mxGeometry x="1470" y="110" width="10" height="1040" as="geometry" />
        </mxCell>
        <mxCell id="4YKfd2uiVcV6lQS0S9Gb-20" value="Устройство" style="shape=umlLifeline;perimeter=lifelinePerimeter;whiteSpace=wrap;html=1;container=1;dropTarget=0;collapsible=0;recursiveResize=0;outlineConnect=0;portConstraint=eastwest;newEdgeStyle={&quot;curved&quot;:0,&quot;rounded&quot;:0};" parent="1" vertex="1">
          <mxGeometry x="1645" y="30" width="100" height="1120" as="geometry" />
        </mxCell>
        <mxCell id="4YKfd2uiVcV6lQS0S9Gb-21" value="" style="html=1;points=[[0,0,0,0,5],[0,1,0,0,-5],[1,0,0,0,5],[1,1,0,0,-5]];perimeter=orthogonalPerimeter;outlineConnect=0;targetShapes=umlLifeline;portConstraint=eastwest;newEdgeStyle={&quot;curved&quot;:0,&quot;rounded&quot;:0};" parent="4YKfd2uiVcV6lQS0S9Gb-20" vertex="1">
          <mxGeometry x="45" y="80" width="10" height="1040" as="geometry" />
        </mxCell>
        <mxCell id="4YKfd2uiVcV6lQS0S9Gb-22" value="Сервер" style="shape=umlLifeline;perimeter=lifelinePerimeter;whiteSpace=wrap;html=1;container=1;dropTarget=0;collapsible=0;recursiveResize=0;outlineConnect=0;portConstraint=eastwest;newEdgeStyle={&quot;curved&quot;:0,&quot;rounded&quot;:0};" parent="1" vertex="1">
          <mxGeometry x="1865" y="30" width="100" height="1120" as="geometry" />
        </mxCell>
        <mxCell id="4YKfd2uiVcV6lQS0S9Gb-23" value="" style="html=1;points=[[0,0,0,0,5],[0,1,0,0,-5],[1,0,0,0,5],[1,1,0,0,-5]];perimeter=orthogonalPerimeter;outlineConnect=0;targetShapes=umlLifeline;portConstraint=eastwest;newEdgeStyle={&quot;curved&quot;:0,&quot;rounded&quot;:0};" parent="4YKfd2uiVcV6lQS0S9Gb-22" vertex="1">
          <mxGeometry x="45" y="270" width="10" height="70" as="geometry" />
        </mxCell>
        <mxCell id="4YKfd2uiVcV6lQS0S9Gb-24" value="" style="html=1;points=[[0,0,0,0,5],[0,1,0,0,-5],[1,0,0,0,5],[1,1,0,0,-5]];perimeter=orthogonalPerimeter;outlineConnect=0;targetShapes=umlLifeline;portConstraint=eastwest;newEdgeStyle={&quot;curved&quot;:0,&quot;rounded&quot;:0};" parent="4YKfd2uiVcV6lQS0S9Gb-22" vertex="1">
          <mxGeometry x="46" y="430" width="10" height="70" as="geometry" />
        </mxCell>
        <mxCell id="4YKfd2uiVcV6lQS0S9Gb-26" value="" style="line;strokeWidth=1;fillColor=none;align=left;verticalAlign=middle;spacingTop=-1;spacingLeft=3;spacingRight=3;rotatable=0;labelPosition=right;points=[];portConstraint=eastwest;strokeColor=inherit;" parent="1" vertex="1">
          <mxGeometry x="1350" y="224" width="870" height="10" as="geometry" />
        </mxCell>
        <mxCell id="4YKfd2uiVcV6lQS0S9Gb-27" value="Взаимодействие&lt;div&gt;с настройками&lt;/div&gt;" style="text;html=1;align=center;verticalAlign=middle;resizable=0;points=[];autosize=1;strokeColor=none;fillColor=none;fontStyle=1" parent="1" vertex="1">
          <mxGeometry x="1350" y="240" width="120" height="40" as="geometry" />
        </mxCell>
        <mxCell id="4YKfd2uiVcV6lQS0S9Gb-28" value="Перейти к окну настроек" style="html=1;verticalAlign=bottom;endArrow=block;curved=0;rounded=0;" parent="1" edge="1">
          <mxGeometry width="80" relative="1" as="geometry">
            <mxPoint x="1480" y="270" as="sourcePoint" />
            <mxPoint x="1690" y="270" as="targetPoint" />
          </mxGeometry>
        </mxCell>
        <mxCell id="4YKfd2uiVcV6lQS0S9Gb-29" value="Отобразить окно настроек" style="html=1;verticalAlign=bottom;endArrow=block;curved=0;rounded=0;" parent="1" edge="1">
          <mxGeometry width="80" relative="1" as="geometry">
            <mxPoint x="1690" y="390" as="sourcePoint" />
            <mxPoint x="1480" y="390" as="targetPoint" />
            <Array as="points">
              <mxPoint x="1585" y="390" />
            </Array>
          </mxGeometry>
        </mxCell>
        <mxCell id="4YKfd2uiVcV6lQS0S9Gb-30" value="Запрос данных" style="html=1;verticalAlign=bottom;endArrow=block;curved=0;rounded=0;" parent="1" edge="1">
          <mxGeometry width="80" relative="1" as="geometry">
            <mxPoint x="1701" y="310" as="sourcePoint" />
            <mxPoint x="1911" y="310" as="targetPoint" />
          </mxGeometry>
        </mxCell>
        <mxCell id="4YKfd2uiVcV6lQS0S9Gb-32" value="Передача данных" style="html=1;verticalAlign=bottom;endArrow=block;curved=0;rounded=0;" parent="1" edge="1">
          <mxGeometry width="80" relative="1" as="geometry">
            <mxPoint x="1911" y="350" as="sourcePoint" />
            <mxPoint x="1701" y="350" as="targetPoint" />
            <Array as="points">
              <mxPoint x="1806" y="350" />
            </Array>
          </mxGeometry>
        </mxCell>
        <mxCell id="4YKfd2uiVcV6lQS0S9Gb-34" value="Внесение изменений" style="html=1;verticalAlign=bottom;endArrow=block;curved=0;rounded=0;" parent="1" edge="1">
          <mxGeometry width="80" relative="1" as="geometry">
            <mxPoint x="1480" y="429.7" as="sourcePoint" />
            <mxPoint x="1690" y="429.7" as="targetPoint" />
          </mxGeometry>
        </mxCell>
        <mxCell id="4YKfd2uiVcV6lQS0S9Gb-35" value="Запрос на изменение данных" style="html=1;verticalAlign=bottom;endArrow=block;curved=0;rounded=0;" parent="1" edge="1">
          <mxGeometry width="80" relative="1" as="geometry">
            <mxPoint x="1701" y="470" as="sourcePoint" />
            <mxPoint x="1911" y="470" as="targetPoint" />
          </mxGeometry>
        </mxCell>
        <mxCell id="4YKfd2uiVcV6lQS0S9Gb-36" value="Подтверждение запроса" style="html=1;verticalAlign=bottom;endArrow=block;curved=0;rounded=0;" parent="1" edge="1">
          <mxGeometry width="80" relative="1" as="geometry">
            <mxPoint x="1911" y="510" as="sourcePoint" />
            <mxPoint x="1701" y="510" as="targetPoint" />
            <Array as="points">
              <mxPoint x="1806" y="510" />
            </Array>
          </mxGeometry>
        </mxCell>
        <mxCell id="4YKfd2uiVcV6lQS0S9Gb-37" value="Отобразить окно настроек" style="html=1;verticalAlign=bottom;endArrow=block;curved=0;rounded=0;" parent="1" edge="1">
          <mxGeometry width="80" relative="1" as="geometry">
            <mxPoint x="1690" y="550" as="sourcePoint" />
            <mxPoint x="1480" y="550" as="targetPoint" />
            <Array as="points">
              <mxPoint x="1585" y="550" />
            </Array>
          </mxGeometry>
        </mxCell>
        <mxCell id="4YKfd2uiVcV6lQS0S9Gb-40" value="alt" style="shape=umlFrame;whiteSpace=wrap;html=1;pointerEvents=0;" parent="1" vertex="1">
          <mxGeometry x="-660" y="240" width="810" height="910" as="geometry" />
        </mxCell>
        <mxCell id="4YKfd2uiVcV6lQS0S9Gb-43" value="Открыть приложение" style="html=1;verticalAlign=bottom;endArrow=block;curved=0;rounded=0;" parent="1" edge="1">
          <mxGeometry width="80" relative="1" as="geometry">
            <mxPoint x="1480" y="150" as="sourcePoint" />
            <mxPoint x="1690" y="150" as="targetPoint" />
          </mxGeometry>
        </mxCell>
        <mxCell id="4YKfd2uiVcV6lQS0S9Gb-44" value="Отобразить страницу &amp;lt;&amp;lt;Обучение&amp;gt;&amp;gt;" style="html=1;verticalAlign=bottom;endArrow=block;curved=0;rounded=0;" parent="1" edge="1">
          <mxGeometry width="80" relative="1" as="geometry">
            <mxPoint x="1690" y="190" as="sourcePoint" />
            <mxPoint x="1480" y="190" as="targetPoint" />
            <Array as="points">
              <mxPoint x="1585" y="190" />
            </Array>
          </mxGeometry>
        </mxCell>
      </root>
    </mxGraphModel>
  </diagram>
</mxfile>
